<svg width="32" height="32" viewBox="0 0 32 32" fill="none" xmlns="http://www.w3.org/2000/svg">
<circle cx="16" cy="16" r="16" fill="white"/>
<path fill-rule="evenodd" clip-rule="evenodd" d="M28 16.2728C28 15.4219 27.922 14.6037 27.7773 13.8182H16.2449V18.4601H22.8348C22.551 19.96 21.6883 21.231 20.3914 22.0819V25.0928H24.3488C26.6642 23.0037 28 19.9273 28 16.2728Z" fill="#4285F4"/>
<path fill-rule="evenodd" clip-rule="evenodd" d="M16.245 28C19.5511 28 22.3229 26.9255 24.3489 25.0927L20.3915 22.0818C19.2951 22.8018 17.8925 23.2273 16.245 23.2273C13.0557 23.2273 10.3563 21.1164 9.39339 18.28H5.30249V21.3891C7.31733 25.3109 11.4583 28 16.245 28Z" fill="#34A853"/>
<path fill-rule="evenodd" clip-rule="evenodd" d="M9.39331 18.28C9.14842 17.56 9.00927 16.7909 9.00927 16C9.00927 15.209 9.14842 14.44 9.39331 13.72V10.6109H5.30241C4.4731 12.2309 4 14.0636 4 16C4 17.9363 4.4731 19.769 5.30241 21.389L9.39331 18.28Z" fill="#FBBC05"/>
<path fill-rule="evenodd" clip-rule="evenodd" d="M16.245 8.77272C18.0427 8.77272 19.6568 9.37818 20.9258 10.5673L24.4379 7.12545C22.3173 5.18909 19.5455 4 16.245 4C11.4583 4 7.31733 6.68909 5.30249 10.6109L9.39339 13.72C10.3563 10.8836 13.0557 8.77272 16.245 8.77272Z" fill="#EA4335"/>
</svg>
