<svg width="40" height="40" viewBox="0 0 40 40" fill="none" xmlns="http://www.w3.org/2000/svg">
<circle opacity="0.05" cx="20" cy="20" r="20" fill="#2D2D2D"/>
<path d="M20 29.25C20 29.25 10.625 24 10.625 17.625C10.625 16.498 11.0155 15.4059 11.73 14.5343C12.4445 13.6628 13.4388 13.0657 14.5439 12.8447C15.649 12.6237 16.7966 12.7923 17.7913 13.322C18.7861 13.8517 19.5665 14.7097 20 15.75C20.4335 14.7097 21.2139 13.8517 22.2087 13.322C23.2034 12.7923 24.351 12.6237 25.4561 12.8447C26.5612 13.0657 27.5555 13.6628 28.27 14.5343C28.9845 15.4059 29.375 16.498 29.375 17.625C29.375 24 20 29.25 20 29.25Z" fill="#FF4B4B" stroke="#FF4B4B" stroke-width="1.5" stroke-linecap="round" stroke-linejoin="round"/>
</svg>
