<svg width="40" height="40" viewBox="0 0 40 40" fill="none" xmlns="http://www.w3.org/2000/svg">
<circle opacity="0.05" cx="20" cy="20" r="20" fill="#2D2D2D"/>
<path d="M20 28.25C20 28.25 10.625 23 10.625 16.625C10.625 15.498 11.0155 14.4059 11.73 13.5343C12.4445 12.6628 13.4388 12.0657 14.5439 11.8447C15.649 11.6237 16.7966 11.7923 17.7913 12.322C18.7861 12.8517 19.5665 13.7097 20 14.75C20.4335 13.7097 21.2139 12.8517 22.2087 12.322C23.2034 11.7923 24.351 11.6237 25.4561 11.8447C26.5612 12.0657 27.5555 12.6628 28.27 13.5343C28.9845 14.4059 29.375 15.498 29.375 16.625C29.375 23 20 28.25 20 28.25Z" stroke="#94A1B2" stroke-width="1.5" stroke-linecap="round" stroke-linejoin="round"/>
</svg>
